<svg height="512" viewBox="0 0 512 512" width="512" xmlns="http://www.w3.org/2000/svg"><g id="solid"><path fill="#f7f7f7" d="m120.853 148.451a12 12 0 0 0 -20.486-8.486l-28.284 28.285a12.014 12.014 0 0 0 0 16.971 12.015 12.015 0 0 0 16.971 0l28.284-28.285a11.92 11.92 0 0 0 3.515-8.485z"/><path fill="#f7f7f7" d="m149.137 176.735a12 12 0 0 0 -20.485-8.485l-28.285 28.284a12.014 12.014 0 0 0 0 16.971 12.015 12.015 0 0 0 16.971 0l28.285-28.284a11.926 11.926 0 0 0 3.514-8.486z"/><path fill="#f7f7f7" d="m177.772 112.167h19.815a7.989 7.989 0 0 1 7.266 2.176l.3.3 12.523 12.522-2.673-29.4a22.04 22.04 0 0 0 -6.35-13.565l-.959-.96a21.974 21.974 0 0 0 -23.725-4.868l-11.8 4.717a15.078 15.078 0 0 0 5.6 29.077z"/><path fill="#f7f7f7" d="m205.706 233.3a12 12 0 0 0 -20.486-8.486l-28.284 28.286a12 12 0 1 0 16.971 16.97l28.284-28.284a11.92 11.92 0 0 0 3.515-8.486z"/><path fill="#f7f7f7" d="m177.421 205.02a12 12 0 0 0 -20.485-8.486l-28.284 28.284a12 12 0 1 0 16.971 16.971l28.284-28.284a11.924 11.924 0 0 0 3.514-8.485z"/><path fill="#f7f7f7" d="m394.122 314.843h-26.122v120.588l39.589 39.944 69.414-80.566z"/><path fill="#f7f7f7" d="m390.854 295.761a32.2 32.2 0 0 0 -18.367-33.931l-50.65-23.637a47.775 47.775 0 0 1 -14.848-10.806l-21.583-23.206a110.32 110.32 0 0 0 -14.271-12.881l-48.308-36.469c-.029-.022-.054-.049-.083-.072a8.011 8.011 0 0 1 -.754-.656l-25.941-25.94h-18.277a31.078 31.078 0 0 1 -29.679-40.295 31.354 31.354 0 0 1 2.26-5.4l-47.153-47.154-68.145 68.141 37.745 41.454 16.257-16.257a27.982 27.982 0 0 1 47.779 20.1 27.937 27.937 0 0 1 28.284 28.284 27.969 27.969 0 0 1 28.3 27.98c0 .1-.006.2-.007.3a27.982 27.982 0 0 1 20.087 47.784l-22.09 22.09 13.272 14.576a8 8 0 0 1 2.083 5.274l1.235 100.115a12 12 0 0 0 24 0v-44a8 8 0 0 1 16 0v52a12 12 0 0 0 24 0v-44a8 8 0 0 1 16 0v52a12 12 0 0 0 24 0v-44a8 8 0 0 1 16 0v76a12 12 0 0 0 24 0v-136.312a8 8 0 0 1 8-8h30.414z"/><path fill="#f7f7f7" d="m338.343 196.812a8 8 0 1 0 11.314-11.312l-24-24a8 8 0 0 0 -11.314 11.314z"/><path fill="#f7f7f7" d="m290.343 148.812a8 8 0 1 0 11.314-11.312l-8-8a8 8 0 0 0 -11.314 11.314z"/></g></svg>