<svg id="Capa_1" enable-background="new 0 0 512 512" height="512" viewBox="0 0 512 512" width="512" xmlns="http://www.w3.org/2000/svg"><g><g><g><g><g><g><g><g><g><g><path d="m200.438 505.954c-114.671-25.376-200.438-127.649-200.438-249.954 0-26.087 3.902-51.262 11.154-74.974l55.793-97.64c46.811-51.241 114.178-83.386 189.053-83.386 64.966 0 124.28 24.2 169.419 64.076l65.489 90.006c13.569 31.231 21.092 65.696 21.092 101.918 0 122.267-85.714 224.514-200.331 249.93z" fill="#ffce00"/></g></g></g></g></g></g></g></g></g><path d="m512 256c0-36.222-7.523-70.687-21.091-101.918l-284.989 43.593-64.729-59.676-85.72 110.498 167.789 167.789-36.083 29.175 60.482 60.482 64.01-.014c114.617-25.415 200.331-127.662 200.331-249.929z" fill="#ffa300"/><g><path d="m490.908 154.082c-15.057-34.658-37.56-65.332-65.489-90.005-29.733 23.405-64.777 50.992-64.777 50.992-.012.009-.028.011-.04.004-14.66-7.699-33.115-6.618-46.945 4.269l-78.707 61.958c-7.599 5.982-9.405 16.991-3.679 24.785 6.003 8.169 17.504 9.668 25.384 3.466l41.201-32.434c.02.001.033.002.053.004l3.444 3.8c15.9 17.544 41.875 21.266 61.938 9.837l6.986 8.718c-23.219 14.128-53.46 11.187-73.463-7.408-.019-.001-.03-.001-.049-.002l-33.749 26.567c-.337.266-.679.521-1.026.765-8.816 6.217-23.871 6.786-32.383-1.178-.022-.021-4.313-5.479-4.313-5.479l-77.632 61.112c-7.362 5.795-8.632 16.462-2.837 23.824 5.795 7.362 16.462 8.632 23.824 2.836l82.766-65.153 3.98 5.056-89.272 70.274c-7.228 5.69-8.96 16.157-3.53 23.583 5.7 7.796 16.674 9.252 24.198 3.33l95.667-75.309 3.301 4.194-74.539 58.676c-6.931 5.456-8.126 15.497-2.671 22.428 5.456 6.931 15.497 8.126 22.427 2.67l82.134-64.656 3.301 4.194-55.33 43.555c-5.969 4.699-7.193 13.575-2.383 19.455 4.664 5.703 13.057 6.641 18.871 2.064l134.793-106.376c12.434-11.7 17.75-28.522 15.252-44.566-.002-.014.003-.027.014-.036.002-.001 33.56-26.418 63.28-49.814z" fill="#ffeee5"/></g><g fill="#ffdecf"><path d="m255.818 345.757v-2.722c-.089.906-.089 1.816 0 2.722z"/><path d="m211.221 325.163c-6.931 5.456-8.126 15.497-2.671 22.428 5.456 6.931 15.497 8.126 22.427 2.67l24.84-19.554v-40.65z"/><path d="m427.63 203.895s33.558-26.417 63.279-49.813c-15.057-34.658-37.56-65.332-65.489-90.005-29.733 23.405-64.777 50.992-64.777 50.992-.012.009-.028.011-.04.004-14.66-7.699-33.115-6.618-46.945 4.269l-57.839 45.531v45.27c.28-.195.565-.378.837-.592l41.201-32.434c.02.001.033.002.053.004l3.444 3.8c15.9 17.544 41.875 21.266 61.938 9.837l6.986 8.718c-23.219 14.128-53.46 11.187-73.463-7.408-.019-.001-.03-.001-.049-.002l-33.749 26.567c-.337.266-.679.521-1.026.765-1.825 1.287-3.926 2.316-6.173 3.094v60.773l26.641-20.971 3.301 4.194-29.942 23.57v40.65l57.294-45.102 3.301 4.194-55.33 43.555c-3.096 2.437-4.902 5.998-5.265 9.681v2.722c.248 2.513 1.18 4.97 2.882 7.051 4.664 5.703 13.057 6.641 18.871 2.064l134.793-106.376c12.434-11.7 17.75-28.522 15.252-44.566-.003-.014.003-.027.014-.036z"/></g><g><path d="m320.175 300.603c-10.132-.336-18.424 7.773-18.424 17.802v52.436c-.014.015-.023.024-.036.039l-5.116.356c-23.62 1.642-42.611 19.75-46.04 42.583l-11.172.097c3.261-26.984 24.278-48.926 51.261-53.141.012-.015.02-.023.032-.037v-42.952c0-.429.011-.856.033-1.279.568-10.773 9.433-22.954 20.957-24.717.03-.004 6.973 0 6.973 0v-98.8c0-9.37-7.596-16.965-16.965-16.965-9.37 0-16.965 7.596-16.965 16.965v105.333h-6.434v-113.612c0-9.199-7.153-17.034-16.347-17.361-9.652-.343-17.584 7.379-17.584 16.954v121.752h-5.337v-94.863c0-8.82-7.15-15.971-15.971-15.971-8.82 0-15.971 7.15-15.971 15.971v104.53h-5.337v-70.416c0-7.597-6.217-14.049-13.813-13.907-7.366.138-13.295 6.152-13.295 13.551l.211 171.711c1.503 17.007 11.432 31.589 25.585 39.55.012.006.019.019.019.033v49.708c17.889 3.96 36.481 6.047 55.561 6.047 19.118 0 37.747-2.096 55.67-6.07 0-25.839 0-47.376 0-47.376 0-.016.009-.028.022-.035 15.117-6.757 25.683-21.927 25.683-39.527v-100.168c0-9.671-7.534-17.9-17.2-18.221z" fill="#d47f6c"/></g><g fill="#bc6455"><path d="m320.175 300.603c-10.132-.336-18.424 7.773-18.424 17.802v52.436c-.014.015-.023.024-.036.039l-5.116.356c-17.761 1.234-32.903 11.781-40.781 26.645v114.117c.061 0 .121.002.182.002 19.118 0 37.747-2.096 55.67-6.07 0-25.839 0-47.376 0-47.376 0-.016.009-.028.022-.035 15.117-6.757 25.683-21.927 25.683-39.527v-100.168c0-9.671-7.534-17.9-17.2-18.221z"/><path d="m290.648 360.774c.012-.015.02-.023.032-.037v-42.952c0-.429.011-.856.033-1.279.568-10.773 9.433-22.954 20.957-24.717.03-.004 6.973 0 6.973 0v-98.799c0-9.37-7.596-16.965-16.965-16.965-9.37 0-16.965 7.596-16.965 16.965v105.333h-6.434v-113.612c0-9.199-7.153-17.034-16.347-17.361-2.149-.077-4.204.266-6.113.921v210.863c9.068-9.558 21.183-16.228 34.829-18.36z"/></g><g><path d="m320.173 273.851-77.632-61.112s-4.291 5.459-4.313 5.479c-8.513 7.964-23.568 7.396-32.383 1.178-.347-.245-.689-.5-1.026-.765l-33.749-26.567c-.019.001-.03.001-.049.002-20.003 18.595-50.244 21.537-73.463 7.408l6.986-8.718c20.063 11.429 46.038 7.707 61.938-9.837l3.444-3.8c.02-.002.033-.003.053-.004l41.201 32.434c7.88 6.203 19.381 4.704 25.384-3.466 5.726-7.793 3.921-18.803-3.679-24.785l-78.707-61.958c-13.83-10.887-32.285-11.967-46.945-4.269-.013.007-.029.005-.04-.004 0 0-18.629-14.665-40.246-31.682-25.273 27.665-44.555 60.896-55.792 97.639 16.525 13.008 29.051 22.869 29.051 22.869.011.009.016.022.014.036-2.498 16.044 2.818 32.866 15.252 44.566l134.793 106.376c5.814 4.577 14.207 3.638 18.871-2.064 4.81-5.88 3.586-14.756-2.383-19.455l-55.33-43.555 3.301-4.194 82.134 64.656c6.931 5.456 16.972 4.26 22.427-2.67 5.456-6.931 4.26-16.972-2.671-22.428l-74.539-58.676 3.301-4.194 95.667 75.309c7.524 5.923 18.498 4.466 24.198-3.33 5.43-7.426 3.698-17.893-3.53-23.583l-89.272-70.274 3.98-5.056 82.766 65.153c7.362 5.796 18.029 4.525 23.824-2.836 5.796-7.361 4.526-18.028-2.836-23.823z" fill="#faa68e"/></g><g fill="#e09380"><path d="m281.043 337.601c7.524 5.923 18.498 4.466 24.198-3.33 5.43-7.426 3.698-17.893-3.53-23.583l-45.893-36.126v43.182z"/><path d="m320.173 273.851-64.355-50.66v43.182l43.367 34.138c7.362 5.796 18.029 4.525 23.824-2.836 5.796-7.362 4.526-18.029-2.836-23.824z"/></g></g></svg>